<svg width="192" height="145" viewBox="0 0 192 145" fill="none" xmlns="http://www.w3.org/2000/svg">
<path d="M66.0955 126.001H27.1607L20.4709 145H4.54908L37.8644 51.8776H55.5256L88.8409 145H72.7853L66.0955 126.001ZM61.814 113.558L46.695 70.3415L31.4422 113.558H61.814ZM118.579 52.0114V145H103.326V52.0114H118.579Z" fill="black"/>
<path d="M176.448 8.15214L182.469 18.8559L164.139 25.6795L182.469 32.5031L176.314 43.4744L161.062 31.4327L163.871 50.8332H151.562L154.104 31.4327L138.851 43.742L132.429 32.3693L150.626 25.5457L132.429 18.9897L138.584 8.01834L154.238 20.06L151.562 0.525728H164.005L161.062 20.06L176.448 8.15214Z" fill="black"/>
</svg>
