<svg width="23" height="23" viewBox="0 0 23 23" fill="none" xmlns="http://www.w3.org/2000/svg">
<g clip-path="url(#clip0_7_1517)">
<path d="M22.776 11.7649C22.776 10.9832 22.7126 10.1972 22.5774 9.42816H11.7302V13.8566H17.9419C17.6841 15.2849 16.8559 16.5483 15.6431 17.3512V20.2246H19.349C21.5252 18.2217 22.776 15.2637 22.776 11.7649Z" fill="#4285F4"/>
<path d="M11.7301 23.0008C14.8317 23.0008 17.4473 21.9824 19.3531 20.2246L15.6472 17.3512C14.6161 18.0526 13.2851 18.4498 11.7343 18.4498C8.7341 18.4498 6.19028 16.4257 5.27755 13.7045H1.45337V16.6666C3.4056 20.5499 7.3819 23.0008 11.7301 23.0008Z" fill="#34A853"/>
<path d="M5.27349 13.7044C4.79177 12.2762 4.79177 10.7296 5.27349 9.30136V6.3392H1.45354C-0.177547 9.5887 -0.177547 13.4171 1.45354 16.6666L5.27349 13.7044Z" fill="#FBBC04"/>
<path d="M11.7301 4.55176C13.3696 4.5264 14.9542 5.14334 16.1416 6.27581L19.4249 2.99251C17.3459 1.04028 14.5866 -0.0330299 11.7301 0.000774972C7.3819 0.000774972 3.4056 2.45163 1.45337 6.33919L5.27332 9.30134C6.18183 6.57583 8.72987 4.55176 11.7301 4.55176Z" fill="#EA4335"/>
</g>
<defs>
<clipPath id="clip0_7_1517">
<rect width="23" height="23" fill="white"/>
</clipPath>
</defs>
</svg>
