<svg width="26" height="28" viewBox="0 0 26 28" fill="none" xmlns="http://www.w3.org/2000/svg">
<path d="M2.19531 9.95322C2.19531 6.0007 2.19531 4.02444 3.4232 2.79655C4.65109 1.56866 6.62735 1.56866 10.5799 1.56866H16.1696C20.1221 1.56866 22.0983 1.56866 23.3262 2.79655C24.5541 4.02444 24.5541 6.0007 24.5541 9.95322V19.4943C24.5541 23.244 24.5541 25.1188 23.3743 25.6923C22.1944 26.2657 20.7202 25.1074 17.7718 22.7908L16.8282 22.0493C15.1703 20.7467 14.3414 20.0954 13.3747 20.0954C12.4081 20.0954 11.5791 20.7467 9.92128 22.0493L8.97767 22.7908C6.02921 25.1074 4.55499 26.2657 3.37515 25.6923C2.19531 25.1188 2.19531 23.244 2.19531 19.4943V9.95322Z" stroke="black" stroke-width="2.79485"/>
</svg>
